<?xml version="1.0" encoding="UTF-8"?>
<svg width="247" height="48" viewBox="0 0 570 110" version="1.1" xmlns="http://www.w3.org/2000/svg" xmlns:xlink="http://www.w3.org/1999/xlink">
    <!-- Generator: Sketch 61.2 (89653) - https://sketch.com -->
    <title>Amazon Pay Logo</title>
    <desc>Created with Sketch.</desc>
    <g id="Page-1" stroke="none" stroke-width="1" fill="none" fill-rule="evenodd">
        <g id="Amazon-Pay-logo---Button---Full-color---Negative">
            <g id="logo-amazonpay-fullcolor-dark-rgb">
                <path d="M403.616671,7.82278807 C406.61289,5.24819959 409.808856,3.26774691 413.20457,1.98045267 C416.600284,0.693158436 420.095873,0 423.591461,0 C427.386671,0 430.782385,0.693158436 433.878477,2.07947531 C436.974569,3.46579218 439.571292,5.54526749 441.668645,8.2188786 C443.765998,10.8924897 445.463855,14.061214 446.562468,17.9230967 C447.661082,21.6859568 448.260325,26.0429527 448.260325,30.7960391 C448.260325,35.6481481 447.661082,40.005144 446.462594,43.9660494 C445.264107,47.9269547 443.56625,51.1947016 441.269149,53.9673354 C439.071922,56.7399691 436.375326,58.8194444 433.17936,60.4038066 C429.983393,61.8891461 426.487805,62.6813272 422.692595,62.6813272 C415.601545,62.6813272 409.509234,60.4038066 404.315789,55.7497428 L404.315789,83.1790123 C404.315789,84.7633745 403.516797,85.5555556 401.918814,85.5555556 L394.927638,85.5555556 C393.329655,85.5555556 392.530663,84.7633745 392.530663,83.1790123 L392.530663,4.25797325 C392.530663,2.67361111 393.329655,1.88143004 394.927638,1.88143004 L400.121083,1.88143004 C401.719066,1.88143004 402.617932,2.67361111 402.81768,4.25797325 L403.616671,7.82278807 L403.616671,7.82278807 Z M420.29562,9.30812757 C414.702679,9.30812757 409.40936,11.090535 404.415663,14.6553498 L404.415663,47.3328189 C409.509234,51.095679 414.702679,52.9771091 419.995999,52.9771091 C430.882259,52.9771091 436.275452,45.7484568 436.275452,31.1921296 C436.375326,16.6358025 430.982133,9.30812757 420.29562,9.30812757 L420.29562,9.30812757 Z" id="Shape" fill="#FFFFFF"></path>
                <path d="M462.877942,12.0294427 C462.679333,12.129688 462.381419,12.2299334 461.984202,12.3301788 C461.586984,12.4304241 461.28907,12.5306695 460.991157,12.5306695 C459.998112,12.5306695 459.50159,11.828952 459.50159,10.425517 L459.50159,7.21766562 C459.50159,6.1149667 459.700199,5.31300386 459.998112,4.91202243 C460.296026,4.51104101 460.891853,4.11005959 461.884897,3.70907816 C464.367509,2.60637925 467.445947,1.70417105 471.219516,1.00245356 C474.893781,0.300736067 478.568046,0 482.242311,0 C489.690145,0 495.151891,1.50368034 498.726851,4.61128637 C502.301812,7.71889239 503.989987,12.5306695 503.989987,18.9463722 L503.989987,59.5457413 C503.989987,61.149667 503.195552,61.9516299 501.60668,61.9516299 L496.542153,61.9516299 C495.052586,61.9516299 494.158846,61.149667 493.960237,59.746232 L493.36441,55.8366632 C490.583886,58.2425517 487.406143,60.1472135 484.029791,61.5506484 C480.65344,62.8538381 477.177784,63.5555556 473.900737,63.5555556 C468.240382,63.5555556 463.771682,61.9516299 460.494635,58.7437785 C457.217588,55.5359271 455.529412,51.2253768 455.529412,45.8121276 C455.529412,39.997897 457.614805,35.3866106 461.686288,31.9782685 C465.757771,28.5699264 471.219516,26.76551 478.170828,26.76551 C482.540224,26.76551 487.505447,27.4672275 492.967193,28.7704171 L492.967193,20.9512794 C492.967193,16.6407291 492.073452,13.6333684 490.186668,11.9291973 C488.299883,10.2250263 485.022836,9.32281809 480.355526,9.32281809 C474.695172,9.32281809 468.935514,10.2250263 462.877942,12.0294427 L462.877942,12.0294427 Z M476.581957,54.5334735 C479.163873,54.5334735 481.845093,54.0322468 484.724923,53.0297932 C487.505447,52.0273396 490.285972,50.5236593 492.867888,48.5187522 L492.867888,36.3890641 C490.881799,35.8878374 488.89571,35.5871013 486.711012,35.2863652 C484.526314,34.9856292 482.44092,34.8853838 480.454831,34.8853838 C471.616734,34.8853838 467.148033,38.2937259 467.148033,45.2106555 C467.148033,48.2180161 467.942469,50.5236593 469.630645,52.127585 C471.219516,53.7315107 473.602823,54.5334735 476.581957,54.5334735 L476.581957,54.5334735 Z" id="Shape" fill="#FFFFFF"></path>
                <path d="M542.300718,72.7435897 C540.184242,78.1282051 537.664628,82.1168091 534.842661,84.4102564 C532.020693,86.8034188 528.291664,88 523.756359,88 C521.236745,88 518.9187,87.7008547 516.903009,87.2022792 C515.995948,87.002849 515.391241,86.6039886 514.988103,86.1054131 C514.584964,85.6068376 514.383395,84.8091168 514.383395,83.7122507 L514.383395,80.6210826 C514.383395,79.1253561 514.988103,78.3276353 516.197517,78.3276353 C516.600655,78.3276353 517.205363,78.4273504 518.011639,78.5270655 C518.817916,78.7264957 519.926546,78.7264957 521.236745,78.7264957 C524.260282,78.7264957 526.578327,78.02849 528.291664,76.6324786 C530.005002,75.2364672 531.51677,72.6438746 532.82697,68.8547009 L535.145014,62.8717949 L512.06535,6.63247863 C511.460643,5.33618234 511.259074,4.33903134 511.259074,3.84045584 C511.259074,2.94301994 511.863781,2.44444444 512.972411,2.44444444 L520.128115,2.44444444 C521.438314,2.44444444 522.244591,2.64387464 522.748514,3.04273504 C523.252436,3.44159544 523.655575,4.33903134 524.159497,5.63532764 L540.889734,51.5042735 L557.015264,5.63532764 C557.519187,4.33903134 557.922325,3.44159544 558.426248,3.04273504 C558.930171,2.64387464 559.736447,2.44444444 561.046646,2.44444444 L567.698427,2.44444444 C568.807057,2.44444444 569.411765,2.94301994 569.411765,3.84045584 C569.411765,4.43874644 569.109411,5.33618234 568.605488,6.63247863 L542.300718,72.7435897 L542.300718,72.7435897 Z" id="Shape" fill="#FFFFFF"></path>
                <g id="Group" transform="translate(50.883605, 66.000000)" fill="#FF9900">
                    <path d="M174.358666,20 C153.284529,35.7 122.667386,44 96.4241199,44 C59.5443792,44 26.3426719,30.3 1.19287571,7.5 C-0.795250473,5.7 0.994063092,3.3 3.37981451,4.6 C30.5177369,20.5 64.0176631,30 98.710465,30 C122.070948,30 147.717775,25.1 171.376477,15 C174.855698,13.5 177.937293,17.4 174.358666,20 L174.358666,20 Z" id="Shape"></path>
                    <path d="M183.205828,9.9 C180.521857,6.4 165.412098,8.3 158.553063,9.1 C156.465531,9.3 156.167312,7.5 158.056032,6.2 C170.084195,-2.3 189.866051,0.1 192.152396,3 C194.438741,5.9 191.555958,25.8 180.223639,35.3 C178.434325,36.8 176.843824,36 177.639074,34 C180.223639,27.7 185.889798,13.4 183.205828,9.9 L183.205828,9.9 Z" id="Shape"></path>
                </g>
                <g id="Group" fill="#FFFFFF">
                    <path d="M209.631712,11.6769231 L209.631712,3.24923077 C209.631712,1.92923077 210.624756,1.11692308 211.717105,1.11692308 L248.559059,1.11692308 C249.750713,1.11692308 250.644453,2.03076923 250.644453,3.24923077 L250.644453,10.4584615 C250.644453,11.6769231 249.651409,13.2 247.863928,15.7384615 L228.797472,43.6615385 C235.848089,43.4584615 243.395228,44.5753846 249.850017,48.2307692 C251.339584,49.0430769 251.736802,50.2615385 251.836107,51.48 L251.836107,60.4153846 C251.836107,61.6338462 250.545149,63.0553846 249.154886,62.3446154 C237.834178,56.2523077 222.7399,55.6430769 210.227539,62.4461538 C208.936581,63.1569231 207.645623,61.7353846 207.645623,60.5169231 L207.645623,51.9876923 C207.645623,50.6676923 207.645623,48.3323077 209.035885,46.2 L231.180779,13.7076923 L211.915714,13.7076923 C210.624756,13.7076923 209.631712,12.8953846 209.631712,11.6769231 L209.631712,11.6769231 Z" id="Shape"></path>
                    <path d="M75.0741706,64.1723077 L63.8527668,64.1723077 C62.7604177,64.0707692 61.9659821,63.2584615 61.8666776,62.2430769 L61.8666776,3.35076923 C61.8666776,2.13230769 62.8597222,1.21846154 64.0513757,1.21846154 L74.4783438,1.21846154 C75.5706929,1.32 76.464433,2.13230769 76.5637375,3.14769231 L76.5637375,10.8646154 L76.7623464,10.8646154 C79.4435668,3.45230769 84.6073986,6.07908785e-14 91.5587107,6.07908785e-14 C98.6093272,6.07908785e-14 102.978723,3.45230769 106.156466,10.8646154 C108.837686,3.45230769 115.093867,6.07908785e-14 121.647962,6.07908785e-14 C126.315271,6.07908785e-14 131.479103,2.03076923 134.656846,6.39692308 C138.231806,11.3723077 137.43737,18.5815385 137.43737,24.8769231 L137.43737,62.04 C137.43737,63.2584615 136.444326,64.1723077 135.252672,64.1723077 L124.031269,64.1723077 C122.93892,64.0707692 122.045179,63.1569231 122.045179,62.04 L122.045179,30.8676923 C122.045179,28.4307692 122.243788,22.2369231 121.747266,19.8 C120.95283,15.84 118.370914,14.7230769 115.193172,14.7230769 C112.511951,14.7230769 109.632122,16.5507692 108.440469,19.5969231 C107.248815,22.5415385 107.34812,27.5169231 107.34812,30.8676923 L107.34812,62.04 C107.34812,63.2584615 106.355075,64.1723077 105.163421,64.1723077 L93.9420177,64.1723077 C92.8496686,64.0707692 91.9559285,63.1569231 91.9559285,62.04 L91.9559285,30.8676923 C91.9559285,24.2676923 93.0482776,14.6215385 85.0046164,14.6215385 C76.9609553,14.6215385 77.2588687,24.0646154 77.2588687,30.8676923 L77.2588687,62.04 C77.2588687,63.2584615 76.2658241,64.1723077 75.0741706,64.1723077 L75.0741706,64.1723077 Z" id="Shape"></path>
                    <path d="M282.42188,0 C299.105029,0 308.04243,14.6215385 308.04243,33.2030769 C308.04243,51.1753846 298.111984,65.3907692 282.42188,65.3907692 C266.036644,65.3907692 257.198547,50.7692308 257.198547,32.5938462 C257.198547,14.2153846 266.235253,0 282.42188,0 L282.42188,0 Z M282.521184,11.9815385 C274.278914,11.9815385 273.683087,23.4553846 273.683087,30.6646154 C273.683087,37.8738462 273.583783,53.2061538 282.42188,53.2061538 C291.160672,53.2061538 291.55789,40.8184615 291.55789,33.3046154 C291.55789,28.3292308 291.359281,22.44 289.869714,17.6676923 C288.678061,13.6061538 286.096145,11.9815385 282.521184,11.9815385 L282.521184,11.9815385 Z" id="Shape"></path>
                    <path d="M329.690802,64.1723077 L318.469398,64.1723077 C317.377049,64.0707692 316.483309,63.1569231 316.483309,62.04 L316.483309,3.14769231 C316.582614,2.03076923 317.476354,1.21846154 318.668007,1.21846154 L329.094975,1.21846154 C330.08802,1.32 330.882456,1.92923077 331.081064,2.84307692 L331.081064,11.88 L331.279673,11.88 C334.457416,3.85846154 338.826812,-5.64486729e-14 346.57256,-5.64486729e-14 C351.637087,-5.64486729e-14 356.503006,1.82769231 359.680748,6.90461538 C362.659882,11.5753846 362.659882,19.4953846 362.659882,25.2830769 L362.659882,62.3446154 C362.560578,63.36 361.666838,64.1723077 360.475184,64.1723077 L349.25378,64.1723077 C348.260736,64.0707692 347.366996,63.36 347.267691,62.3446154 L347.267691,30.36 C347.267691,23.9630769 347.962822,14.52 340.217075,14.52 C337.535854,14.52 334.953938,16.3476923 333.762285,19.1907692 C332.173413,22.7446154 331.974805,26.4 331.974805,30.36 L331.974805,62.04 C331.8755,63.2584615 330.882456,64.1723077 329.690802,64.1723077 L329.690802,64.1723077 Z" id="Shape"></path>
                    <path d="M180.237592,36.6553846 C180.237592,41.1230769 180.336897,44.88 178.152198,48.84 C176.364718,52.0892308 173.484889,54.0184615 170.406451,54.0184615 C166.136359,54.0184615 163.554443,50.6676923 163.554443,45.6923077 C163.554443,35.9446154 172.094626,34.1169231 180.237592,34.1169231 L180.237592,36.6553846 L180.237592,36.6553846 Z M191.5583,64.5784615 C190.863169,65.2892308 189.77082,65.2892308 188.87708,64.8830769 C185.103511,61.7353846 184.507684,60.2123077 182.42229,57.2676923 C176.265414,63.6646154 171.896018,65.5938462 163.951661,65.5938462 C154.517737,65.5938462 147.169207,59.6030769 147.169207,47.7230769 C147.169207,38.3815385 152.13443,32.0861538 159.085742,28.9384615 C165.143314,26.1969231 173.683498,25.6892308 180.138288,24.9784615 L180.138288,23.4553846 C180.138288,20.7138462 180.336897,17.4646154 178.748025,15.1292308 C177.357763,12.9969231 174.775847,12.1846154 172.491844,12.1846154 C168.221753,12.1846154 164.448183,14.4184615 163.455139,19.0892308 C163.25653,20.1046154 162.561398,21.12 161.469049,21.2215385 L150.545559,20.0030769 C149.651819,19.8 148.55947,18.9876923 148.857383,17.5661538 C151.339995,4.06153846 163.25653,1.12897346e-13 173.981411,1.12897346e-13 C179.443156,1.12897346e-13 186.593077,1.52307692 190.863169,5.68615385 C196.324914,10.8646154 195.828392,17.8707692 195.828392,25.3846154 L195.828392,43.2553846 C195.828392,48.6369231 198.01309,50.9723077 200.098484,53.9169231 C200.793615,54.9323077 200.992224,56.2523077 200.098484,56.9630769 C197.913786,58.9938462 193.842303,62.5476923 191.5583,64.5784615 L191.5583,64.5784615 L191.5583,64.5784615 Z" id="Shape"></path>
                    <path d="M33.1676891,36.6553846 C33.1676891,41.1230769 33.2669936,44.88 31.0822955,48.84 C29.2948152,52.0892308 26.4149859,54.0184615 23.3365477,54.0184615 C19.066456,54.0184615 16.4845401,50.6676923 16.4845401,45.6923077 C16.4845401,35.9446154 25.0247235,34.1169231 33.1676891,34.1169231 L33.1676891,36.6553846 L33.1676891,36.6553846 Z M44.4883974,64.5784615 C43.7932662,65.2892308 42.7009171,65.2892308 41.807177,64.8830769 C38.0336076,61.7353846 37.4377808,60.2123077 35.3523872,57.2676923 C29.1955108,63.6646154 24.8261146,65.5938462 16.8817579,65.5938462 C7.44783438,65.5938462 0.0993044584,59.6030769 0.0993044584,47.7230769 C0.0993044584,38.3815385 5.06452738,32.0861538 12.0158395,28.9384615 C18.0734114,26.1969231 26.6135949,25.6892308 33.0683847,24.9784615 L33.0683847,23.4553846 C33.0683847,20.7138462 33.2669936,17.4646154 31.6781222,15.1292308 C30.2878598,12.9969231 27.7059439,12.1846154 25.4219414,12.1846154 C21.1518496,12.1846154 17.3782802,14.4184615 16.3852356,19.0892308 C16.1866267,20.1046154 15.4914955,21.12 14.3991465,21.2215385 L3.5749605,20.0030769 C2.68122038,19.8 1.58887134,18.9876923 1.88678471,17.5661538 C4.36939617,4.06153846 16.2859312,1.12897346e-13 27.0108127,1.12897346e-13 C32.4725579,1.12897346e-13 39.6224789,1.52307692 43.8925706,5.68615385 C49.3543158,10.8646154 48.8577936,17.8707692 48.8577936,25.3846154 L48.8577936,43.2553846 C48.8577936,48.6369231 51.0424916,50.9723077 53.1278853,53.9169231 C53.8230165,54.9323077 54.0216254,56.2523077 53.1278853,56.9630769 C50.8438827,58.9938462 46.7723999,62.5476923 44.4883974,64.5784615 L44.4883974,64.5784615 L44.4883974,64.5784615 Z" id="Shape"></path>
                </g>
            </g>
        </g>
    </g>
</svg>