<?xml version="1.0" encoding="UTF-8"?>
<svg width="175" height="48" viewBox="0 0 330 110" version="1.1" xmlns="http://www.w3.org/2000/svg" xmlns:xlink="http://www.w3.org/1999/xlink">
    <g id="Logos" stroke="none" stroke-width="1" fill="none" fill-rule="evenodd">
        <g id="logos/amazon_pay/fullcolor/positive/logo-amazonpay-primary-fullcolor-positive">
            <path d="M226.341,86.026 C205.132,101.677 174.385,110 147.908,110 C110.801,110 77.385,96.283 52.099,73.451 C50.113,71.658 51.884,69.21 54.271,70.598 C81.552,86.473 115.291,96.034 150.136,96.034 C173.643,96.034 199.482,91.156 223.259,81.07 C226.843,79.55 229.85,83.433 226.341,86.026" id="Fill-4" fill="#FF9900"></path>
            <path d="M235.167,75.949 C232.453,72.477 217.236,74.304 210.398,75.123 C208.327,75.372 208.006,73.562 209.873,72.251 C222.014,63.725 241.905,66.186 244.218,69.041 C246.547,71.921 243.605,91.865 232.229,101.382 C230.479,102.845 228.814,102.065 229.59,100.132 C232.151,93.738 237.882,79.425 235.167,75.949" id="Fill-5" fill="#FF9900"></path>
            <path d="M210.994,11.455 L210.994,3.169 C211.001,1.907 211.949,1.068 213.095,1.072 L250.23,1.068 C251.417,1.068 252.371,1.932 252.371,3.158 L252.371,10.264 C252.36,11.457 251.356,13.011 249.576,15.48 L230.339,42.944 C237.479,42.777 245.033,43.848 251.52,47.494 C252.983,48.316 253.375,49.533 253.49,50.727 L253.49,59.569 C253.49,60.785 252.156,62.196 250.754,61.461 C239.326,55.474 224.158,54.821 211.518,61.536 C210.227,62.223 208.876,60.833 208.876,59.613 L208.876,51.21 C208.876,49.864 208.902,47.565 210.258,45.516 L232.544,13.543 L213.14,13.541 C211.953,13.541 211.001,12.696 210.994,11.455" id="Fill-6" fill="#FFFFFF"></path>
            <path d="M75.535,63.203 L64.238,63.203 C63.163,63.133 62.305,62.326 62.217,61.293 L62.226,3.311 C62.226,2.15 63.2,1.224 64.406,1.224 L74.927,1.221 C76.028,1.276 76.911,2.109 76.98,3.169 L76.98,10.738 L77.192,10.738 C79.934,3.417 85.102,0 92.061,0 C99.126,0 103.556,3.417 106.719,10.738 C109.462,3.417 115.684,0 122.328,0 C127.074,0 132.241,1.952 135.404,6.345 C138.989,11.227 138.254,18.302 138.254,24.525 L138.243,61.117 C138.243,62.274 137.269,63.203 136.063,63.203 L124.78,63.203 C123.645,63.131 122.754,62.234 122.754,61.122 L122.75,30.381 C122.75,27.944 122.961,21.842 122.432,19.524 C121.589,15.618 119.058,14.519 115.791,14.519 C113.048,14.519 110.2,16.35 109.039,19.277 C107.88,22.208 107.984,27.086 107.984,30.381 L107.984,61.117 C107.984,62.274 107.01,63.203 105.807,63.203 L94.522,63.203 C93.387,63.131 92.493,62.234 92.493,61.122 L92.482,30.381 C92.482,23.915 93.536,14.4 85.523,14.4 C77.402,14.4 77.719,23.671 77.719,30.381 L77.715,61.117 C77.715,62.274 76.739,63.203 75.535,63.203" id="Fill-7" fill="#FFFFFF"></path>
            <path d="M284.443,11.837 C276.112,11.837 275.586,23.182 275.586,30.26 C275.586,37.337 275.481,52.466 284.34,52.466 C293.095,52.466 293.514,40.264 293.514,32.824 C293.514,27.944 293.303,22.086 291.825,17.449 C290.56,13.422 288.028,11.837 284.443,11.837 Z M284.34,0 C301.108,0 310.176,14.4 310.176,32.701 C310.176,50.391 300.16,64.426 284.34,64.426 C267.888,64.426 258.923,50.025 258.923,32.091 C258.923,14.032 267.992,0 284.34,0 L284.34,0 Z" id="Fill-8" fill="#FFFFFF"></path>
            <path d="M331.922,63.203 L320.665,63.203 C319.534,63.131 318.639,62.234 318.639,61.122 L318.62,3.117 C318.715,2.055 319.652,1.224 320.791,1.224 L331.269,1.221 C332.256,1.273 333.07,1.944 333.277,2.844 L333.277,11.714 L333.49,11.714 C336.655,3.781 341.081,0 348.885,0 C353.947,0 358.905,1.829 362.069,6.834 C365.021,11.47 365.021,19.277 365.021,24.891 L365.021,61.379 C364.895,62.405 363.972,63.203 362.856,63.203 L351.531,63.203 C350.485,63.137 349.641,62.367 349.52,61.379 L349.52,29.896 C349.52,23.551 350.259,14.276 342.455,14.276 C339.712,14.276 337.181,16.107 335.916,18.912 C334.334,22.452 334.121,25.988 334.121,29.896 L334.121,61.117 C334.102,62.274 333.126,63.203 331.922,63.203" id="Fill-9" fill="#FFFFFF"></path>
            <path d="M192.78,63.619 C192.033,64.29 190.955,64.335 190.111,63.882 C186.36,60.763 185.688,59.323 183.635,56.353 C177.434,62.67 173.043,64.566 165.009,64.566 C155.499,64.566 148.1,58.695 148.1,46.958 C148.1,37.786 153.068,31.55 160.148,28.493 C166.277,25.802 174.838,25.313 181.393,24.578 L181.393,23.111 C181.393,20.42 181.603,17.243 180.017,14.919 C178.642,12.839 176.001,11.983 173.676,11.983 C169.367,11.983 165.538,14.19 164.595,18.767 C164.399,19.785 163.657,20.793 162.633,20.846 L151.683,19.659 C150.757,19.45 149.731,18.709 149.996,17.296 C152.516,4.012 164.511,0 175.26,0 C180.758,0 187.943,1.465 192.276,5.625 C197.774,10.76 197.244,17.609 197.244,25.07 L197.244,42.668 C197.244,47.965 199.444,50.286 201.508,53.137 C202.23,54.168 202.391,55.388 201.471,56.141 C199.164,58.076 195.064,61.636 192.808,63.644 L192.78,63.619 Z M181.393,36.074 C181.393,40.478 181.497,44.143 179.276,48.058 C177.481,51.236 174.626,53.194 171.457,53.194 C167.124,53.194 164.588,49.891 164.588,44.999 C164.588,35.377 173.219,33.629 181.393,33.629 L181.393,36.074 L181.393,36.074 Z" id="Fill-10" fill="#FFFFFF"></path>
            <path d="M44.68,63.619 C43.934,64.29 42.853,64.335 42.012,63.882 C38.257,60.763 37.585,59.323 35.536,56.353 C29.333,62.67 24.941,64.566 16.91,64.566 C7.398,64.566 0,58.695 0,46.958 C0,37.786 4.966,31.55 12.048,28.493 C18.176,25.802 26.739,25.313 33.289,24.578 L33.289,23.111 C33.289,20.42 33.502,17.243 31.917,14.919 C30.542,12.839 27.899,11.983 25.576,11.983 C21.267,11.983 17.434,14.19 16.495,18.767 C16.3,19.785 15.556,20.793 14.532,20.846 L3.583,19.659 C2.657,19.45 1.629,18.709 1.896,17.296 C4.412,4.012 16.407,0 27.16,0 C32.656,0 39.843,1.465 44.176,5.625 C49.67,10.76 49.144,17.609 49.144,25.07 L49.144,42.668 C49.144,47.965 51.342,50.286 53.406,53.137 C54.126,54.168 54.291,55.388 53.371,56.141 C51.063,58.076 46.961,61.636 44.706,63.644 L44.68,63.619 Z M33.289,36.074 C33.289,40.478 33.395,44.143 31.176,48.058 C29.381,51.236 26.526,53.194 23.355,53.194 C19.024,53.194 16.486,49.891 16.486,44.999 C16.486,35.377 25.119,33.629 33.289,33.629 L33.289,36.074 L33.289,36.074 Z" id="Fill-11" fill="#FFFFFF"></path>
        </g>
    </g>
</svg>